<mxfile host="app.diagrams.net" agent="Mozilla/5.0 (Windows NT 10.0; Win64; x64; rv:139.0) Gecko/20100101 Firefox/139.0" version="27.1.4">
  <diagram name="Página-1" id="ZfuYBb1uDBB9Q9XqHdRm">
    <mxGraphModel grid="1" page="1" gridSize="10" guides="1" tooltips="1" connect="1" arrows="1" fold="1" pageScale="1" pageWidth="827" pageHeight="1169" math="0" shadow="0">
      <root>
        <mxCell id="0" />
        <mxCell id="1" parent="0" />
        <mxCell id="Xy3kY2UkPaOCshvsATr--7" style="edgeStyle=orthogonalEdgeStyle;rounded=0;orthogonalLoop=1;jettySize=auto;html=1;exitX=0.5;exitY=0.5;exitDx=0;exitDy=0;exitPerimeter=0;entryX=0;entryY=0.5;entryDx=0;entryDy=0;" edge="1" parent="1" source="Xy3kY2UkPaOCshvsATr--1" target="Xy3kY2UkPaOCshvsATr--2">
          <mxGeometry relative="1" as="geometry" />
        </mxCell>
        <mxCell id="Xy3kY2UkPaOCshvsATr--9" style="edgeStyle=orthogonalEdgeStyle;rounded=0;orthogonalLoop=1;jettySize=auto;html=1;exitX=0.5;exitY=0.5;exitDx=0;exitDy=0;exitPerimeter=0;entryX=0;entryY=0.5;entryDx=0;entryDy=0;" edge="1" parent="1" source="Xy3kY2UkPaOCshvsATr--1" target="Xy3kY2UkPaOCshvsATr--4">
          <mxGeometry relative="1" as="geometry">
            <Array as="points">
              <mxPoint x="140" y="340" />
              <mxPoint x="140" y="376" />
            </Array>
          </mxGeometry>
        </mxCell>
        <mxCell id="LNx-PBO9m9lHoqWZFwc0-3" style="edgeStyle=orthogonalEdgeStyle;rounded=0;orthogonalLoop=1;jettySize=auto;html=1;exitX=0.5;exitY=0.5;exitDx=0;exitDy=0;exitPerimeter=0;entryX=0;entryY=0.5;entryDx=0;entryDy=0;" edge="1" parent="1" source="Xy3kY2UkPaOCshvsATr--1" target="Xy3kY2UkPaOCshvsATr--3">
          <mxGeometry relative="1" as="geometry" />
        </mxCell>
        <mxCell id="71R-AwvmHKOEzy-VgtAY-2" style="edgeStyle=orthogonalEdgeStyle;rounded=0;orthogonalLoop=1;jettySize=auto;html=1;exitX=0.5;exitY=0.5;exitDx=0;exitDy=0;exitPerimeter=0;entryX=0;entryY=0.5;entryDx=0;entryDy=0;" edge="1" parent="1" source="Xy3kY2UkPaOCshvsATr--1" target="71R-AwvmHKOEzy-VgtAY-1">
          <mxGeometry relative="1" as="geometry" />
        </mxCell>
        <mxCell id="Xy3kY2UkPaOCshvsATr--1" value="Sistema" style="shape=umlActor;verticalLabelPosition=bottom;verticalAlign=top;html=1;" vertex="1" parent="1">
          <mxGeometry x="60" y="310" width="30" height="60" as="geometry" />
        </mxCell>
        <mxCell id="Xy3kY2UkPaOCshvsATr--2" value="Automatizar Procesos de Auditoría" style="ellipse;whiteSpace=wrap;html=1;" vertex="1" parent="1">
          <mxGeometry x="190" y="181.38" width="140" height="70" as="geometry" />
        </mxCell>
        <mxCell id="Xy3kY2UkPaOCshvsATr--3" value="Automatizar Seguridad de Acceso" style="ellipse;whiteSpace=wrap;html=1;" vertex="1" parent="1">
          <mxGeometry x="190" y="261.38" width="140" height="70" as="geometry" />
        </mxCell>
        <mxCell id="Xy3kY2UkPaOCshvsATr--4" value="Automatizar Gestión de Credenciales" style="ellipse;whiteSpace=wrap;html=1;" vertex="1" parent="1">
          <mxGeometry x="190" y="341.38" width="140" height="70" as="geometry" />
        </mxCell>
        <mxCell id="71R-AwvmHKOEzy-VgtAY-1" value="Automatizar Envío de Alertas" style="ellipse;whiteSpace=wrap;html=1;" vertex="1" parent="1">
          <mxGeometry x="190" y="428.63" width="140" height="70" as="geometry" />
        </mxCell>
      </root>
    </mxGraphModel>
  </diagram>
</mxfile>
